<svg version="1.1" xmlns="http://www.w3.org/2000/svg" viewBox="0 0 63 104.1" xml:space="preserve">
<g>
	<path fill="#FFFFFF" d="M31.5,104.1C14.1,104.1,0,90,0,72.7V31.5C0,14.1,14.1,0,31.5,0C48.9,0,63,14.1,63,31.5v41.2
		C63,90,48.9,104.1,31.5,104.1z M31.5,5C16.9,5,5,16.9,5,31.5v41.2c0,14.6,11.9,26.5,26.5,26.5C46.1,99.1,58,87.3,58,72.7V31.5
		C58,16.9,46.1,5,31.5,5z"/>
</g>
<g>
	<path fill="#FFFFFF" d="M38.2,43.8c0,3.7-3,6.7-6.7,6.7l0,0c-3.7,0-6.7-3-6.7-6.7v-9.6c0-3.7,3-6.7,6.7-6.7l0,0
		c3.7,0,6.7,3,6.7,6.7V43.8z"/>
</g>
</svg>
