<svg version="1.1" id="logo" xmlns="http://www.w3.org/2000/svg" viewBox="0 0 244.9 52" xml:space="preserve">
<g>
	<path fill="#FFFFFF" d="M0,0v52h217.5c9.6,0,12.6-13.3,12.6-13.3L244.9,0H0z"/>
	<g>
		<path fill="#002D64" d="M181.6,24.9c-0.3,0.1-1.7,0.1-2.2,0.1v-5.1c0.2,0,0.7-0.1,1-0.1c1.3,0,2.5,0.6,2.5,2.6
			C182.9,24,182.1,24.7,181.6,24.9 M185,28.9c-0.9-1.4-1.4-2.3-1.8-3c0.6-0.4,2.3-1.5,2.3-3.5c0-2.9-1.8-4.1-5.1-4.1
			c-1.2,0-2.8,0.2-3.4,0.4c0,0.6,0,1.2,0,2.3v7.4c0,1.8,0,3.1-0.1,4h2.1c0.3-0.1,0.4-0.2,0.4-0.5v-5.3c0.3,0,0.6,0,0.9,0
			c0.4,0,0.6,0.1,1,0.8c1.3,2.2,2,3.5,2.6,4.2c0.6,0.7,1.1,0.9,1.9,0.9c0.6,0,1.3-0.1,1.5-0.2l0-0.1C186.9,31.7,186.2,30.8,185,28.9
			"/>
		<path fill="#002D64" d="M113.4,30.5c-1,0.1-2.3,0.1-3.3,0.1c-0.9,0-2,0-2.5-0.1v-4.6h3.2c0.8,0,1.1-0.1,1.5-1.7h-4.6V20h2.3
			c1,0,1.5,0,1.8-0.1c0.3-0.3,0.5-0.7,0.7-1.6h-7.4c0.1,0.9,0.1,4.6,0.1,4.6h0v5.4c0,1.8,0,3.1-0.1,4h7.2c0,0,0,0,0,0
			C112.8,32,113.3,31.4,113.4,30.5L113.4,30.5z"/>
		<path fill="#002D64" d="M159.5,30.5c-1,0.1-2.3,0.1-3.3,0.1c-0.8,0-1.6,0-2.1-0.1v-11c0-0.8,0-1.1-0.2-1.2h-2.4
			c0,0.6,0.1,4.7,0.1,4.7h0v5.3c0,1.8,0,3.1-0.1,4h6.8c0,0,0,0,0,0C159,32,159.4,31.4,159.5,30.5L159.5,30.5z"/>
		<path fill="#002D64" d="M148.8,30.5c-1,0.1-2.3,0.1-3.2,0.1c-0.9,0-2,0-2.5-0.1v-4.6h3.2c0.8,0,1.1-0.1,1.5-1.7h-4.6V20h2.3
			c1,0,1.5,0,1.8-0.1c0.3-0.3,0.6-0.7,0.7-1.6l-7.4,0c0.1,0.9,0.1,4.6,0.1,4.6h0v5.4c0,1.8,0,3.1-0.1,4h7.2c0,0,0,0,0,0
			C148.2,32,148.7,31.4,148.8,30.5L148.8,30.5z"/>
		<path fill="#002D64" d="M165.5,26.7c0.9-2.2,1.4-3.6,2-5.1c0.2,0.6,0.8,2.1,1.9,5.1H165.5z M168.8,18.7c-0.1-0.2-0.2-0.3-0.3-0.4
			h-1.5l-0.3,0.7v0c-0.8,1.9-4.5,10.5-5.7,13.2l2.3,0c0.1-0.1,0.1-0.1,0.1-0.2c0.3-0.7,1-2.3,1.6-3.8h5c0.6,1.5,0.9,2.3,1.3,3.4
			c0.1,0.3,0.2,0.5,0.4,0.6l2.7,0c-0.4-0.9-1-2.5-1.9-4.7C171.6,25.7,169.8,21.1,168.8,18.7"/>
		<path fill="#002D64" d="M121.2,24.3c-1.6-1.2-2.5-1.8-2.5-2.9c0-1.1,0.9-1.7,2-1.7c0.7,0,1.2,0.1,1.6,0.3c0.4,0.2,0.7,0.2,0.9-0.1
			c0.2-0.3,0.4-0.6,0.4-0.9c-0.4-0.4-1.7-1-2.9-1h0c-3.6,0-4.5,2.3-4.5,3.8c0,1.1,0.4,2.4,2.6,3.9c2.2,1.6,2.7,2.2,2.7,3.2
			c0,1.3-1.1,1.9-2.2,1.9c-1,0-2.3-0.5-3.1-1.1c-0.2,0.2-0.3,0.8-0.3,1.4c0,0.3,0.1,0.4,0.4,0.7c0.5,0.4,1.7,0.8,3.1,0.8
			c2.5,0,4.7-1.3,4.7-4C124.1,26.5,122.9,25.6,121.2,24.3"/>
		<path fill="#002D64" d="M127.1,18.3c-0.4,0.1-1,0.7-1.1,1.7h4.6v12c0,0.1,0,0.2,0.1,0.3h2.5c0-0.5-0.1-1.4-0.1-2.8V20h3.7
			c0.4-0.1,1-0.7,1.1-1.7H127.1z"/>
		<path fill="#002D64" d="M187.5,19h0.1c0.3,0,0.3-0.2,0.3-0.2c0-0.1-0.1-0.2-0.3-0.2h-0.2V19z M187.2,18.5h0.4
			c0.2,0,0.4,0.1,0.4,0.3c0,0.2-0.1,0.3-0.3,0.3l0.4,0.5l-0.2,0l-0.3-0.5h-0.2v0.5h-0.2V18.5z M188.5,19.1c0-0.5-0.4-0.9-0.8-0.9
			c-0.5,0-0.9,0.4-0.9,0.9c0,0.5,0.4,0.9,0.9,0.9C188.1,19.9,188.5,19.5,188.5,19.1 M186.6,19.1c0-0.6,0.5-1.1,1-1.1
			c0.6,0,1,0.5,1,1.1c0,0.6-0.5,1-1,1C187.1,20.1,186.6,19.6,186.6,19.1"/>
		<path fill="#002D64" d="M63.2,12c-3.4,3.4-5.4,8-5.4,13.1c0,5.1,2.1,9.7,5.4,13.1c3.4,3.4,8,5.4,13.1,5.4c5.1,0,9.7-2.1,13.1-5.4
			c3.4-3.4,5.4-8,5.4-13.1c0-5.1-2.1-9.8-5.4-13.1c-3.3-3.4-8-5.4-13.1-5.4C71.2,6.5,66.6,8.6,63.2,12 M57.1,25.1
			c0-10.6,8.6-19.2,19.2-19.2c10.6,0,19.2,8.6,19.2,19.2c0,10.6-8.6,19.2-19.2,19.2C65.7,44.3,57.1,35.7,57.1,25.1"/>
		<path fill="#002D64" d="M68,34c-1.4-3.9-0.7-7,1.5-10.1c4.2-5.8,11.8-8.9,14.3-7.7c0.7,0.4,2.7,2.7,2.7,4.4c0,3.7-8.2,9-14.8,6
			c0.3-0.4,0.4-0.6,0.7-1c4.3,0.8,10.8-3.1,11.5-7.1c0.1-0.5,0.2-1.6-0.5-1.9c0.2,0.5,0.2,1.1,0.1,1.4c-1.5-0.4-6,1.6-9.6,5.1
			c-1,1-2,2.1-2.8,3.3c-0.9,1.5-2,3.9-1.6,6.8c-0.6-1-1.1-2.3-1.5-3.7c0.1,1.7,0.7,3,1.3,4c1.8,3.5,8.5,3.5,15.3-0.1
			c5.5-2.9,8.7-6.6,9.3-9.8c-0.3-5.8-5-12.9-9.9-14.1c0,0,0,0-0.1,0c-9.9-1.7-18.7,8.2-14.6,13.6l-0.7,0.9c-5.5-6-0.1-16,8.7-16.8
			c-0.4,0-0.8,0-1.2,0c-9.8,0-17.8,8-17.8,17.8c0,9.8,8,17.8,17.8,17.8c5.8,0,10.9-2.8,14.2-7c-1.5,1-3.2,1.9-5.1,2.6
			C77.8,41.4,70.3,40.2,68,34"/>
		<path fill="#002D64" d="M107.7,36.5c-0.2-0.1-0.5-0.3-0.8-0.3c-0.8,0-1.3,0.6-1.3,1.3c0,0.8,0.6,1.3,1.3,1.3
			c0.4,0,0.6-0.1,0.8-0.2l0.2,0.3c-0.2,0.1-0.6,0.3-1,0.3c-1.1,0-1.7-0.8-1.7-1.7c0-0.8,0.6-1.6,1.8-1.6c0.5,0,0.8,0.2,1,0.3
			L107.7,36.5z"/>
		<path fill="#002D64" d="M111.8,37.5c0-0.6-0.3-1.3-1.1-1.3c-0.8,0-1.1,0.7-1.1,1.3c0,0.6,0.3,1.4,1.1,1.4
			C111.5,38.9,111.8,38.1,111.8,37.5z M109.1,37.5c0-0.9,0.7-1.6,1.6-1.6c0.9,0,1.6,0.7,1.6,1.6c0,1-0.6,1.7-1.6,1.7
			C109.7,39.2,109.1,38.5,109.1,37.5z"/>
		<polygon fill="#002D64" points="113.7,36 114.2,36 114.2,38.8 115.5,38.8 115.5,39.2 113.7,39.2 		"/>
		<path fill="#002D64" d="M119.4,37.5c0-0.6-0.3-1.3-1.1-1.3c-0.8,0-1.1,0.7-1.1,1.3c0,0.6,0.3,1.4,1.1,1.4
			C119.1,38.9,119.4,38.1,119.4,37.5z M116.7,37.5c0-0.9,0.7-1.6,1.6-1.6c0.9,0,1.6,0.7,1.6,1.6c0,1-0.6,1.7-1.6,1.7
			C117.3,39.2,116.7,38.5,116.7,37.5z"/>
		<path fill="#002D64" d="M124.8,39.2h-0.4v-2.6h0c-0.1,0.4-0.8,1.8-1.3,2.6h-0.2c-0.4-0.8-1.1-2.2-1.2-2.6h0v2.6h-0.4V36h0.5
			c0.4,0.8,0.8,1.7,1.2,2.6c0.4-0.9,0.9-1.7,1.3-2.6h0.4V39.2z"/>
		<path fill="#002D64" d="M126.8,38.8h0.4c0.4,0,0.7-0.2,0.7-0.6c0-0.4-0.4-0.6-0.8-0.6h-0.4V38.8z M126.8,37.3h0.2
			c0.4,0,0.7-0.3,0.7-0.6c0-0.3-0.2-0.4-0.6-0.4h-0.4V37.3z M126.4,39.2V36h1c0.5,0,0.8,0.2,0.8,0.7c0,0.5-0.4,0.8-0.7,0.8v0
			c0.4,0,0.9,0.3,0.9,0.8c0,0.5-0.5,0.9-1.1,0.9H126.4z"/>
		<rect x="129.9" y="36" fill="#002D64" width="0.5" height="3.2"/>
		<path fill="#002D64" d="M133.5,37.9c-0.2-0.4-0.3-0.9-0.5-1.5h0c-0.2,0.6-0.3,1-0.5,1.5H133.5z M133.3,36l1.2,3.2H134l-0.3-0.9
			h-1.2l-0.3,0.9h-0.4l1.3-3.2H133.3z"/>
		<path fill="#002D64" d="M138.7,38.4c-0.4,0-0.8-0.4-0.8-0.8c0-0.5,0.4-0.8,0.8-0.8c0.5,0,0.8,0.4,0.8,0.8
			C139.5,38,139.2,38.4,138.7,38.4z"/>
		<path fill="#002D64" d="M143.8,39.2h-0.5V36h0.8c0.7,0,1.1,0.3,1.1,0.9c0,0.5-0.5,1-1.2,1h-0.1v-0.3l0.2,0c0.4,0,0.7-0.2,0.7-0.7
			c0-0.4-0.2-0.6-0.7-0.6h-0.3V39.2z"/>
		<polygon fill="#002D64" points="148.3,36.3 147.1,36.3 147.1,37.3 148.3,37.3 148.3,37.6 147.1,37.6 147.1,38.8 148.5,38.8 
			148.5,39.2 146.7,39.2 146.7,36 148.3,36 		"/>
		<path fill="#002D64" d="M150.3,37.5h0.3c0.6,0,0.7-0.4,0.7-0.7c0-0.4-0.3-0.5-0.6-0.5h-0.4V37.5z M149.8,36h0.9
			c0.5,0,0.9,0.3,0.9,0.8c0,0.5-0.2,0.7-0.5,0.9l0.8,1.3l-0.5,0.1l-0.8-1.4h-0.5v1.3h-0.4V36z"/>
		<path fill="#002D64" d="M154.1,35.6l0.7-0.6c0.1-0.1,0.2-0.1,0.3-0.1c0.1,0,0.1,0.1,0.1,0.1c0,0.1-0.1,0.1-0.2,0.2l-0.7,0.5
			L154.1,35.6z M153.7,36v1.9c0,0.6,0.2,1,0.8,1c0.6,0,0.8-0.5,0.8-0.9v-2h0.4v2c0,0.7-0.4,1.2-1.2,1.2c-0.9,0-1.3-0.5-1.3-1.3V36
			H153.7z"/>
		<path fill="#002D64" d="M160.3,38.4c-0.5,0-0.8-0.4-0.8-0.8c0-0.5,0.4-0.8,0.8-0.8c0.5,0,0.8,0.4,0.8,0.8
			C161.1,38,160.7,38.4,160.3,38.4z"/>
		<path fill="#002D64" d="M165.4,39.2h-0.5V36h0.8c0.7,0,1.1,0.3,1.1,0.9c0,0.5-0.5,1-1.2,1h-0.1v-0.3l0.1,0c0.4,0,0.7-0.2,0.7-0.7
			c0-0.4-0.2-0.6-0.7-0.6h-0.3V39.2z"/>
		<path fill="#002D64" d="M169.5,37.9c-0.2-0.4-0.3-0.9-0.5-1.5h0c-0.2,0.6-0.3,1-0.5,1.5H169.5z M169.2,36l1.2,3.2h-0.5l-0.3-0.9
			h-1.2l-0.3,0.9h-0.4l1.3-3.2H169.2z"/>
		<path fill="#002D64" d="M174.4,39.2h-0.3c-0.7-0.8-1.9-2.2-2.1-2.5h0v2.5h-0.4V36h0.3c0.7,0.8,1.9,2.2,2.1,2.5h0V36h0.4V39.2z"/>
		<path fill="#002D64" d="M177.5,37.9c-0.2-0.4-0.3-0.9-0.5-1.5h0c-0.2,0.6-0.3,1-0.5,1.5H177.5z M177.3,36l1.2,3.2H178l-0.3-0.9
			h-1.2l-0.4,0.9h-0.4l1.3-3.2H177.3z"/>
		<path fill="#002D64" d="M183.2,39.2h-0.4v-2.6h0c-0.1,0.4-0.8,1.8-1.3,2.6h-0.2c-0.4-0.8-1.1-2.2-1.2-2.6h0v2.6h-0.4V36h0.5
			c0.4,0.8,0.8,1.7,1.2,2.6c0.5-0.9,0.9-1.7,1.3-2.6h0.4V39.2z"/>
		<path fill="#002D64" d="M185.4,35.6l0.7-0.6c0.1-0.1,0.2-0.1,0.3-0.1c0.1,0,0.1,0.1,0.1,0.1c0,0.1-0.1,0.2-0.2,0.2l-0.8,0.5
			L185.4,35.6z M186.3,37.9c-0.2-0.4-0.3-0.9-0.5-1.4h0c-0.2,0.6-0.3,1-0.5,1.4H186.3z M186,36l1.2,3.1h-0.5l-0.3-0.9h-1.2l-0.4,0.9
			h-0.4l1.3-3.1H186z"/>
	</g>
</g>
</svg>
